<?xml version="1.0" encoding="utf-8"?>
<!-- generated at drububu.com  -->
<!DOCTYPE svg PUBLIC "-//W3C//DTD SVG 1.1//EN" "http://www.w3.org/Graphics/SVG/1.1/DTD/svg11.dtd">
<svg version="1.1" preserveAspectRatio="xMinYMin meet" xmlns="http://www.w3.org/2000/svg" xmlns:xlink="http://www.w3.org/1999/xlink" x="0px" y="0px" width="820px" height="600px" viewBox="0 0 820 600">
<path d="M0 0h820v600h-820v-600zM140 80v240h20v60h-20v20h520v-20h-80v-120h-60v-60h-220v-20h20v-100h-180zM100 420v100h60v-100h-60zM180 420v100h20v-20h20v20h20v-100h-60zM260 420v60h40v20h-40v20h60v-60h-40v-20h40v-20h-60zM340 420v60h40v20h-40v20h60v-60h-40v-20h40v-20h-60zM420 420v100h20v-20h20v20h20v-100h-60zM500 420v100h40v-20h20v-60h-20v-20h-40zM580 420v100h20v-100h-20zM620 420v100h20v-60h20v-20h-20v-20h-20zM680 420v40h-20v20h20v40h20v-100h-20z" fill-rule="nonzero" fill="rgb(0,0,0)"/>
<path d="M140 80h180v100h-20v-80h-140v200h20v80h380v-100h-100v-20h40v-40h-220
	v-40h20v20h220v60h60v120h80v20h-520v-20h20v-60h-20v-240z" fill="rgb(255,255,255)"/>
<path d="M160 100h60v40h40v-40h40v20h-20v20h20v20h-20v60h40v40h40v40h60v40h60
	v20h-300v-80h-20v-80h60v-40h-60v-20h20v-20h-20v-20zM180 220v20h20v-20h-20zM220 240v40h40v20h-20v40h120v-20h-20v-20h-60v-60h-60zM200 320v20h20v-20h-20zM380 320v20h20v-20h-20z" fill-rule="nonzero" fill="rgb(217,159,120)"/>
<path d="M220 100h20v20h20v20h-40v-40z" fill="rgb(219,219,219)"/>
<path d="M240 100h20v20h-20v-20z" fill="rgb(188,124,81)"/>
<path d="M160 120h20v20h-20v-20z" fill="rgb(217,150,105)"/>
<path d="M280 120h20v20h-20v-20z" fill="rgb(217,150,105)"/>
<path d="M160 160h60v20h-60v-20z" fill="rgb(188,124,81)"/>
<path d="M280 160h20v20h-20v-20z" fill="rgb(188,124,81)"/>
<path d="M160 180h60v20h-60v-20z" fill="rgb(219,219,219)"/>
<path d="M180 220h20v20h-20v-20z" fill="rgb(217,150,105)"/>
<path d="M320 220h20v20h40v20h-60v-40z" fill="rgb(219,219,219)"/>
<path d="M340 220h40v20h-40v-20z" fill="rgb(188,124,81)"/>
<path d="M380 220h40v20h40v40h80v40h-20v20h20v-20h20v40h-60v-60h-80v-40h-40v-40z" fill="rgb(217,159,120)"/>
<path d="M420 220h20v20h-20v-20z" fill="rgb(217,150,105)"/>
<path d="M440 220h20v20h-20v-20z" fill="rgb(217,158,118)"/>
<path d="M460 220h40v20h-40v-20z" fill="rgb(217,159,120)"/>
<path d="M220 240h60v20h-60v-20z" fill="rgb(188,124,81)"/>
<path d="M460 240h40v20h-40v-20z" fill="rgb(188,124,81)"/>
<path d="M220 260h60v60h80v20h-120v-20h20v-40h-40v-20z" fill="rgb(219,219,219)"/>
<path d="M360 260h60v20h-60v-20z" fill="rgb(188,124,81)"/>
<path d="M160 280h20v20h-20v-20z" fill="rgb(188,124,81)"/>
<path d="M360 280h60v20h-60v-20z" fill="rgb(219,219,219)"/>
<path d="M540 280h20v20h-20v-20z" fill="rgb(188,124,81)"/>
<path d="M240 300h20v20h-20v-20z" fill="rgb(188,124,81)"/>
<path d="M280 300h60v20h-60v-20z" fill="rgb(188,124,81)"/>
<path d="M420 300h80v20h-80v-20z" fill="rgb(188,124,81)"/>
<path d="M540 300h20v20h-20v-20z" fill="rgb(219,219,219)"/>
<path d="M200 320h20v20h-20v-20z" fill="rgb(217,150,105)"/>
<path d="M380 320h20v20h-20v-20z" fill="rgb(217,150,105)"/>
<path d="M420 320h80v60h-20v-40h-60v-20z" fill="rgb(219,219,219)"/>
<path d="M520 320h20v20h-20v-20z" fill="rgb(217,150,105)"/>
<path d="M180 360h300v20h-300v-20z" fill="rgb(188,124,81)"/>
<path d="M500 360h60v20h-60v-20z" fill="rgb(188,124,81)"/>
<path d="M100 420h60v100h-60v-100zM120 440v20h20v-20h-20zM120 480v20h20v-20h-20z" fill-rule="nonzero" fill="rgb(255,255,255)"/>
<path d="M180 420h60v100h-20v-20h-20v20h-20v-100zM200 440v40h20v-40h-20z" fill-rule="nonzero" fill="rgb(255,255,255)"/>
<path d="M260 420h60v20h-40v20h40v60h-60v-20h40v-20h-40v-60z" fill="rgb(255,255,255)"/>
<path d="M340 420h60v20h-40v20h40v60h-60v-20h40v-20h-40v-60z" fill="rgb(255,255,255)"/>
<path d="M420 420h60v100h-20v-20h-20v20h-20v-100zM440 440v40h20v-40h-20z" fill-rule="nonzero" fill="rgb(255,255,255)"/>
<path d="M500 420h40v20h-20v60h20v20h-40v-100z" fill="rgb(255,255,255)"/>
<path d="M580 420h20v100h-20v-100z" fill="rgb(255,255,255)"/>
<path d="M620 420h20v20h20v20h-20v60h-20v-100z" fill="rgb(255,255,255)"/>
<path d="M680 420h20v100h-20v-40h-20v-20h20v-40z" fill="rgb(255,255,255)"/>
<path d="M120 440h20v20h-20v-20z" fill="rgb(0,0,0)"/>
<path d="M200 440h20v40h-20v-40z" fill="rgb(0,0,0)"/>
<path d="M440 440h20v40h-20v-40z" fill="rgb(0,0,0)"/>
<path d="M520 440h20v60h-20v-60z" fill="rgb(0,0,0)"/>
<path d="M540 440h20v60h-20v-60z" fill="rgb(255,255,255)"/>
<path d="M120 480h20v20h-20v-20z" fill="rgb(0,0,0)"/>
</svg>