<?xml version="1.0" encoding="utf-8"?>
<!-- generated at drububu.com  -->
<!DOCTYPE svg PUBLIC "-//W3C//DTD SVG 1.1//EN" "http://www.w3.org/Graphics/SVG/1.1/DTD/svg11.dtd">
<svg version="1.1" preserveAspectRatio="xMinYMin meet" xmlns="http://www.w3.org/2000/svg" xmlns:xlink="http://www.w3.org/1999/xlink" x="0px" y="0px" width="32px" height="32px" viewBox="0 0 32 32">
<path d="M0 0h32v32h-32v-32zM3 5v12h1v3h-1v1h26v-1h-4v-6h-3v-3h-11v-1h1v-5h-9zM1 22v5h3v-5h-3zM5 22v5h1v-1h1v1h1v-5h-3zM9 22v3h2v1h-2v1h3v-3h-2v-1h2v-1h-3zM13 22v3h2v1h-2v1h3v-3h-2v-1h2v-1h-3zM17 22v5h1v-1h1v1h1v-5h-3zM21 22v5h2v-1h1v-3h-1v-1h-2zM25 22v5h1v-5h-1zM27 22v5h1v-3h1v-1h-1v-1h-1zM30 22v2h-1v1h1v2h1v-5h-1z" fill-rule="nonzero" fill="rgb(0,0,0)"/>
<path d="M3 5h9v5h-1v-4h-7v10h1v4h19v-5h-5v-1h2v-2h-11v-2h1v1h11v3h3v6h4v1h-26
	v-1h1v-3h-1v-12z" fill="rgb(255,255,255)"/>
<path d="M4 6h3v2h2v-2h2v1h-1v1h1v1h-1v3h2v2h2v2h3v2h3v1h-15v-4h-1v-4h3v-2h-3
	v-1h1v-1h-1v-1zM5 12v1h1v-1h-1zM7 13v2h2v1h-1v2h6v-1h-1v-1h-3v-3h-3zM6 17v1h1v-1h-1zM15 17v1h1v-1h-1z" fill-rule="nonzero" fill="rgb(217,159,120)"/>
<path d="M7 6h1v1h1v1h-2v-2z" fill="rgb(219,219,219)"/>
<path d="M8 6h1v1h-1v-1z" fill="rgb(188,124,81)"/>
<path d="M4 7h1v1h-1v-1z" fill="rgb(217,150,105)"/>
<path d="M10 7h1v1h-1v-1z" fill="rgb(217,150,105)"/>
<path d="M4 9h3v1h-3v-1z" fill="rgb(188,124,81)"/>
<path d="M10 9h1v1h-1v-1z" fill="rgb(188,124,81)"/>
<path d="M4 10h3v1h-3v-1z" fill="rgb(219,219,219)"/>
<path d="M5 12h1v1h-1v-1z" fill="rgb(217,150,105)"/>
<path d="M12 12h1v1h2v1h-3v-2z" fill="rgb(219,219,219)"/>
<path d="M13 12h2v1h-2v-1z" fill="rgb(188,124,81)"/>
<path d="M15 12h2v1h2v2h4v2h-1v1h1v-1h1v2h-3v-3h-4v-2h-2v-2z" fill="rgb(217,159,120)"/>
<path d="M17 12h1v1h-1v-1z" fill="rgb(217,150,105)"/>
<path d="M18 12h1v1h-1v-1z" fill="rgb(217,158,118)"/>
<path d="M19 12h2v1h-2v-1z" fill="rgb(217,159,120)"/>
<path d="M7 13h3v1h-3v-1z" fill="rgb(188,124,81)"/>
<path d="M19 13h2v1h-2v-1z" fill="rgb(188,124,81)"/>
<path d="M7 14h3v3h4v1h-6v-1h1v-2h-2v-1z" fill="rgb(219,219,219)"/>
<path d="M14 14h3v1h-3v-1z" fill="rgb(188,124,81)"/>
<path d="M4 15h1v1h-1v-1z" fill="rgb(188,124,81)"/>
<path d="M14 15h3v1h-3v-1z" fill="rgb(219,219,219)"/>
<path d="M23 15h1v1h-1v-1z" fill="rgb(188,124,81)"/>
<path d="M8 16h1v1h-1v-1z" fill="rgb(188,124,81)"/>
<path d="M10 16h3v1h-3v-1z" fill="rgb(188,124,81)"/>
<path d="M17 16h4v1h-4v-1z" fill="rgb(188,124,81)"/>
<path d="M23 16h1v1h-1v-1z" fill="rgb(219,219,219)"/>
<path d="M6 17h1v1h-1v-1z" fill="rgb(217,150,105)"/>
<path d="M15 17h1v1h-1v-1z" fill="rgb(217,150,105)"/>
<path d="M17 17h4v3h-1v-2h-3v-1z" fill="rgb(219,219,219)"/>
<path d="M22 17h1v1h-1v-1z" fill="rgb(217,150,105)"/>
<path d="M5 19h15v1h-15v-1z" fill="rgb(188,124,81)"/>
<path d="M21 19h3v1h-3v-1z" fill="rgb(188,124,81)"/>
<path d="M1 22h3v5h-3v-5zM2 23v1h1v-1h-1zM2 25v1h1v-1h-1z" fill-rule="nonzero" fill="rgb(255,255,255)"/>
<path d="M5 22h3v5h-1v-1h-1v1h-1v-5zM6 23v2h1v-2h-1z" fill-rule="nonzero" fill="rgb(255,255,255)"/>
<path d="M9 22h3v1h-2v1h2v3h-3v-1h2v-1h-2v-3z" fill="rgb(255,255,255)"/>
<path d="M13 22h3v1h-2v1h2v3h-3v-1h2v-1h-2v-3z" fill="rgb(255,255,255)"/>
<path d="M17 22h3v5h-1v-1h-1v1h-1v-5zM18 23v2h1v-2h-1z" fill-rule="nonzero" fill="rgb(255,255,255)"/>
<path d="M21 22h2v1h-1v3h1v1h-2v-5z" fill="rgb(255,255,255)"/>
<path d="M25 22h1v5h-1v-5z" fill="rgb(255,255,255)"/>
<path d="M27 22h1v1h1v1h-1v3h-1v-5z" fill="rgb(255,255,255)"/>
<path d="M30 22h1v5h-1v-2h-1v-1h1v-2z" fill="rgb(255,255,255)"/>
<path d="M2 23h1v1h-1v-1z" fill="rgb(0,0,0)"/>
<path d="M6 23h1v2h-1v-2z" fill="rgb(0,0,0)"/>
<path d="M18 23h1v2h-1v-2z" fill="rgb(0,0,0)"/>
<path d="M22 23h1v3h-1v-3z" fill="rgb(0,0,0)"/>
<path d="M23 23h1v3h-1v-3z" fill="rgb(255,255,255)"/>
<path d="M2 25h1v1h-1v-1z" fill="rgb(0,0,0)"/>
</svg>